<?xml version="1.0" standalone="no"?>
<!DOCTYPE svg PUBLIC "-//W3C//DTD SVG 20010904//EN"
 "http://www.w3.org/TR/2001/REC-SVG-20010904/DTD/svg10.dtd">
<svg version="1.0" xmlns="http://www.w3.org/2000/svg"
 width="225.000000pt" height="225.000000pt" viewBox="0 0 225.000000 225.000000"
 preserveAspectRatio="xMidYMid meet">
<metadata>
Created by potrace 1.14, written by Peter Selinger 2001-2017
</metadata>
<g transform="translate(0.000000,225.000000) scale(0.100000,-0.100000)"
fill="#000000" stroke="none">
<path d="M756 1790 c-72 -13 -103 -29 -115 -58 -33 -85 -12 -1149 24 -1244 14
-35 55 -42 285 -46 342 -6 738 22 770 54 26 26 32 136 26 449 -7 370 -20 560
-41 592 -18 27 -198 162 -290 216 l-70 42 -270 2 c-148 1 -292 -2 -319 -7z
m493 -77 l85 -6 115 -78 c64 -42 133 -92 154 -111 l38 -33 10 -165 c11 -193
17 -746 7 -755 -21 -22 -455 -48 -715 -44 -105 2 -194 7 -197 10 -26 26 -51
1148 -27 1164 33 20 361 32 530 18z"/>
<path d="M864 1489 c-20 -22 -18 -35 8 -53 17 -12 50 -16 146 -16 134 0 162 8
162 45 0 39 -28 45 -170 43 -105 -2 -134 -6 -146 -19z"/>
<path d="M866 1254 c-21 -20 -20 -30 4 -54 19 -19 32 -20 188 -19 92 1 219 4
282 8 110 6 115 7 118 29 7 51 1 52 -299 52 -239 0 -280 -2 -293 -16z"/>
<path d="M1375 1033 c-22 -2 -146 -7 -275 -11 l-235 -7 -3 -32 c-3 -28 0 -33
24 -39 43 -11 566 5 581 18 31 25 3 82 -39 76 -7 -1 -31 -3 -53 -5z"/>
<path d="M872 778 c-17 -17 -15 -43 5 -59 13 -11 70 -14 286 -12 148 1 280 4
292 7 28 7 38 31 25 57 -10 18 -25 19 -303 19 -215 0 -296 -3 -305 -12z"/>
</g>
</svg>
